<svg width="637" height="311" viewBox="0 0 637 311" fill="none" xmlns="http://www.w3.org/2000/svg">
<path d="M111.87 107.648H70.8536V303.671H111.87V107.648Z" fill="#333333"/>
<path d="M100.559 97.7104H81.9155V108.766H100.559V97.7104Z" fill="#333333"/>
<path d="M96.7062 91.2507H85.8929V97.586H96.7062V91.2507Z" fill="#333333"/>
<path d="M90.6159 107.275L91.3617 0.444336L91.9832 107.275H90.6159Z" fill="#333333"/>
<path opacity="0.09" d="M93.4746 122.431H89.1245V126.778H93.4746V122.431Z" fill="white"/>
<path opacity="0.33" d="M93.4746 136.219H89.1245V140.567H93.4746V136.219Z" fill="white"/>
<path opacity="0.37" d="M93.4746 150.132H89.1245V154.48H93.4746V150.132Z" fill="white"/>
<path opacity="0.14" d="M93.4746 163.921H89.1245V168.269H93.4746V163.921Z" fill="white"/>
<path opacity="0.3" d="M93.4746 177.834H89.1245V182.182H93.4746V177.834Z" fill="white"/>
<path opacity="0.16" d="M93.4746 191.622H89.1245V195.97H93.4746V191.622Z" fill="white"/>
<path opacity="0.34" d="M93.4746 205.535H89.1245V209.883H93.4746V205.535Z" fill="white"/>
<path opacity="0.29" d="M93.4746 219.324H89.1245V223.672H93.4746V219.324Z" fill="white"/>
<path opacity="0.12" d="M93.4746 233.237H89.1245V237.585H93.4746V233.237Z" fill="white"/>
<path d="M36.9221 151.996H-91.595V323.05H36.9221V151.996Z" fill="#4D4D4D"/>
<path d="M3.23921 159.076H-3.5968V165.908H3.23921V159.076Z" fill="white"/>
<path d="M12.3125 159.076H5.47644V165.908H12.3125V159.076Z" fill="white"/>
<path d="M3.23921 168.02H-3.5968V174.853H3.23921V168.02Z" fill="white"/>
<path d="M12.3125 168.02H5.47644V174.853H12.3125V168.02Z" fill="white"/>
<path d="M3.23921 176.964H-3.5968V183.797H3.23921V176.964Z" fill="white"/>
<path d="M12.3125 176.964H5.47644V183.797H12.3125V176.964Z" fill="white"/>
<path d="M3.23921 185.784H-3.5968V192.616H3.23921V185.784Z" fill="white"/>
<path d="M12.3125 185.784H5.47644V192.616H12.3125V185.784Z" fill="white"/>
<path d="M3.23921 194.728H-3.5968V201.56H3.23921V194.728Z" fill="white"/>
<path d="M12.3125 194.728H5.47644V201.56H12.3125V194.728Z" fill="white"/>
<path d="M3.23921 203.672H-3.5968V210.504H3.23921V203.672Z" fill="white"/>
<path d="M12.3125 203.672H5.47644V210.504H12.3125V203.672Z" fill="white"/>
<path d="M3.23921 212.616H-3.5968V219.448H3.23921V212.616Z" fill="white"/>
<path d="M12.3125 212.616H5.47644V219.448H12.3125V212.616Z" fill="white"/>
<path d="M3.23921 221.56H-3.5968V228.392H3.23921V221.56Z" fill="white"/>
<path d="M12.3125 221.56H5.47644V228.392H12.3125V221.56Z" fill="white"/>
<path d="M3.23921 230.38H-3.5968V237.212H3.23921V230.38Z" fill="white"/>
<path d="M12.3125 230.38H5.47644V237.212H12.3125V230.38Z" fill="white"/>
<path d="M3.23921 239.324H-3.5968V246.156H3.23921V239.324Z" fill="white"/>
<path d="M12.3125 239.324H5.47644V246.156H12.3125V239.324Z" fill="white"/>
<path d="M3.23921 248.268H-3.5968V255.1H3.23921V248.268Z" fill="white"/>
<path d="M12.3125 248.268H5.47644V255.1H12.3125V248.268Z" fill="white"/>
<path d="M3.23921 257.212H-3.5968V264.044H3.23921V257.212Z" fill="white"/>
<path d="M12.3125 257.212H5.47644V264.044H12.3125V257.212Z" fill="white"/>
<path d="M3.23921 266.156H-3.5968V272.988H3.23921V266.156Z" fill="white"/>
<path d="M12.3125 266.156H5.47644V272.988H12.3125V266.156Z" fill="white"/>
<path d="M3.23921 274.976H-3.5968V281.808H3.23921V274.976Z" fill="white"/>
<path d="M12.3125 274.976H5.47644V281.808H12.3125V274.976Z" fill="white"/>
<path d="M21.3858 274.976H14.5497V281.808H21.3858V274.976Z" fill="white"/>
<path d="M3.23921 283.92H-3.5968V290.752H3.23921V283.92Z" fill="white"/>
<path d="M12.3125 283.92H5.47644V290.752H12.3125V283.92Z" fill="white"/>
<path d="M21.3858 283.92H14.5497V290.752H21.3858V283.92Z" fill="white"/>
<path d="M3.23921 292.864H-3.5968V299.696H3.23921V292.864Z" fill="white"/>
<path d="M12.3125 292.864H5.47644V299.696H12.3125V292.864Z" fill="white"/>
<path d="M21.3858 292.864H14.5497V299.696H21.3858V292.864Z" fill="white"/>
<path d="M3.23921 301.808H-3.5968V308.64H3.23921V301.808Z" fill="white"/>
<path d="M12.3125 301.808H5.47644V308.64H12.3125V301.808Z" fill="white"/>
<path d="M21.3858 301.808H14.5497V308.64H21.3858V301.808Z" fill="white"/>
<path d="M3.23921 310.751H-3.5968V317.584H3.23921V310.751Z" fill="white"/>
<path d="M12.3125 310.751H5.47644V317.584H12.3125V310.751Z" fill="white"/>
<path d="M21.3858 310.751H14.5497V317.584H21.3858V310.751Z" fill="white"/>
<path d="M17.9056 134.604H-72.5784V151.996H17.9056V134.604Z" fill="#4D4D4D"/>
<path opacity="0.19" d="M21.3858 159.076H14.5497V165.908H21.3858V159.076Z" fill="white"/>
<path opacity="0.24" d="M21.3858 168.02H14.5497V174.852H21.3858V168.02Z" fill="white"/>
<path opacity="0.29" d="M21.3858 176.964H14.5497V183.796H21.3858V176.964Z" fill="white"/>
<path opacity="0.39" d="M21.3858 185.784H14.5497V192.616H21.3858V185.784Z" fill="white"/>
<path opacity="0.21" d="M21.3858 194.728H14.5497V201.56H21.3858V194.728Z" fill="white"/>
<path opacity="0.48" d="M21.3858 203.672H14.5497V210.504H21.3858V203.672Z" fill="white"/>
<path opacity="0.32" d="M21.3858 212.616H14.5497V219.448H21.3858V212.616Z" fill="white"/>
<path opacity="0.13" d="M21.3858 221.56H14.5497V228.392H21.3858V221.56Z" fill="white"/>
<path opacity="0.19" d="M21.3858 230.38H14.5497V237.212H21.3858V230.38Z" fill="white"/>
<path opacity="0.03" d="M21.3858 239.324H14.5497V246.156H21.3858V239.324Z" fill="white"/>
<path opacity="0.36" d="M21.3858 248.268H14.5497V255.1H21.3858V248.268Z" fill="white"/>
<path opacity="0.25" d="M21.3858 257.212H14.5497V264.044H21.3858V257.212Z" fill="white"/>
<path d="M21.3858 266.156H14.5497V272.988H21.3858V266.156Z" fill="white"/>
<path d="M297.436 229.634H256.42V325.658H297.436V229.634Z" fill="#333333"/>
<path d="M275.064 224.79H256.42V230.255H275.064V224.79Z" fill="#333333"/>
<path d="M267.234 221.684H256.42V224.79H267.234V221.684Z" fill="#333333"/>
<path opacity="0.06" d="M280.284 236.342H273.573V241.311H280.284V236.342Z" fill="white"/>
<path opacity="0.12" d="M280.284 248.64H273.573V253.609H280.284V248.64Z" fill="white"/>
<path opacity="0.19" d="M280.284 273.236H273.573V278.205H280.284V273.236Z" fill="white"/>
<path opacity="0.14" d="M280.284 297.832H273.573V302.801H280.284V297.832Z" fill="white"/>
<path opacity="0.1" d="M280.284 310.13H273.573V315.099H280.284V310.13Z" fill="white"/>
<path d="M194.523 240.069H138.344V291.497H194.523V240.069Z" fill="#333333"/>
<path d="M185.699 235.473H147.293V257.584H185.699V235.473Z" fill="#333333"/>
<path d="M198.625 272.491H142.445V323.919H198.625V272.491Z" fill="#333333"/>
<path d="M189.676 267.895H151.27V290.006H189.676V267.895Z" fill="#333333"/>
<path d="M273.448 265.659H217.269V324.913H273.448V265.659Z" fill="#333333"/>
<path d="M264.624 260.441H226.218V286.031H264.624V260.441Z" fill="#333333"/>
<path d="M461.501 283.671H405.321V340.938H461.501V283.671Z" fill="#333333"/>
<path d="M452.676 278.578H414.27V303.298H452.676V278.578Z" fill="#333333"/>
<path d="M339.695 165.411H276.928V324.789H339.695V165.411Z" fill="#333333"/>
<path opacity="0.46" d="M295.199 172.616H280.036V175.474H295.199V172.616Z" fill="#E6E6E6"/>
<path opacity="0.34" d="M315.956 172.616H300.792V175.474H315.956V172.616Z" fill="#E6E6E6"/>
<path opacity="0.52" d="M336.588 172.616H321.425V175.474H336.588V172.616Z" fill="#E6E6E6"/>
<path opacity="0.54" d="M295.199 179.2H280.036V182.057H295.199V179.2Z" fill="#E6E6E6"/>
<path opacity="0.3" d="M315.956 179.2H300.792V182.057H315.956V179.2Z" fill="#E6E6E6"/>
<path opacity="0.06" d="M336.588 179.2H321.425V182.057H336.588V179.2Z" fill="#E6E6E6"/>
<path opacity="0.15" d="M295.199 185.784H280.036V188.641H295.199V185.784Z" fill="#E6E6E6"/>
<path opacity="0.42" d="M315.956 185.784H300.792V188.641H315.956V185.784Z" fill="#E6E6E6"/>
<path opacity="0.48" d="M336.588 185.784H321.425V188.641H336.588V185.784Z" fill="#E6E6E6"/>
<path opacity="0.18" d="M295.199 192.368H280.036V195.225H295.199V192.368Z" fill="#E6E6E6"/>
<path opacity="0.28" d="M336.588 192.368H321.425V195.225H336.588V192.368Z" fill="#E6E6E6"/>
<path opacity="0.29" d="M295.199 198.951H280.036V201.809H295.199V198.951Z" fill="#E6E6E6"/>
<path opacity="0.28" d="M315.956 198.951H300.792V201.809H315.956V198.951Z" fill="#E6E6E6"/>
<path opacity="0.56" d="M336.588 198.951H321.425V201.809H336.588V198.951Z" fill="#E6E6E6"/>
<path opacity="0.41" d="M295.199 205.535H280.036V208.392H295.199V205.535Z" fill="#E6E6E6"/>
<path opacity="0.16" d="M315.956 205.535H300.792V208.392H315.956V205.535Z" fill="#E6E6E6"/>
<path opacity="0.4" d="M336.588 205.535H321.425V208.392H336.588V205.535Z" fill="#E6E6E6"/>
<path opacity="0.1" d="M295.199 212.119H280.036V214.976H295.199V212.119Z" fill="#E6E6E6"/>
<path opacity="0.17" d="M315.956 212.119H300.792V214.976H315.956V212.119Z" fill="#E6E6E6"/>
<path opacity="0.08" d="M336.588 212.119H321.425V214.976H336.588V212.119Z" fill="#E6E6E6"/>
<path opacity="0.49" d="M295.199 218.703H280.036V221.56H295.199V218.703Z" fill="#E6E6E6"/>
<path opacity="0.58" d="M315.956 218.703H300.792V221.56H315.956V218.703Z" fill="#E6E6E6"/>
<path opacity="0.58" d="M336.588 218.703H321.425V221.56H336.588V218.703Z" fill="#E6E6E6"/>
<path opacity="0.26" d="M295.199 225.287H280.036V228.144H295.199V225.287Z" fill="#E6E6E6"/>
<path opacity="0.37" d="M315.956 225.287H300.792V228.144H315.956V225.287Z" fill="#E6E6E6"/>
<path opacity="0.34" d="M336.588 225.287H321.425V228.144H336.588V225.287Z" fill="#E6E6E6"/>
<path opacity="0.55" d="M295.199 231.87H280.036V234.727H295.199V231.87Z" fill="#E6E6E6"/>
<path opacity="0.12" d="M315.956 231.87H300.792V234.727H315.956V231.87Z" fill="#E6E6E6"/>
<path opacity="0.6" d="M336.588 231.87H321.425V234.727H336.588V231.87Z" fill="#E6E6E6"/>
<path opacity="0.02" d="M295.199 238.454H280.036V241.311H295.199V238.454Z" fill="#E6E6E6"/>
<path opacity="0.28" d="M315.956 238.454H300.792V241.311H315.956V238.454Z" fill="#E6E6E6"/>
<path opacity="0.21" d="M336.588 238.454H321.425V241.311H336.588V238.454Z" fill="#E6E6E6"/>
<path opacity="0.57" d="M295.199 245.038H280.036V247.895H295.199V245.038Z" fill="#E6E6E6"/>
<path opacity="0.38" d="M315.956 245.038H300.792V247.895H315.956V245.038Z" fill="#E6E6E6"/>
<path opacity="0.25" d="M336.588 245.038H321.425V247.895H336.588V245.038Z" fill="#E6E6E6"/>
<path opacity="0.15" d="M295.199 251.622H280.036V254.479H295.199V251.622Z" fill="#E6E6E6"/>
<path opacity="0.47" d="M315.956 251.622H300.792V254.479H315.956V251.622Z" fill="#E6E6E6"/>
<path opacity="0.3" d="M336.588 251.622H321.425V254.479H336.588V251.622Z" fill="#E6E6E6"/>
<path opacity="0.4" d="M295.199 258.206H280.036V261.063H295.199V258.206Z" fill="#E6E6E6"/>
<path opacity="0.39" d="M315.956 258.206H300.792V261.063H315.956V258.206Z" fill="#E6E6E6"/>
<path opacity="0.24" d="M336.588 258.206H321.425V261.063H336.588V258.206Z" fill="#E6E6E6"/>
<path opacity="0.46" d="M295.199 264.789H280.036V267.646H295.199V264.789Z" fill="#E6E6E6"/>
<path opacity="0.22" d="M315.956 264.789H300.792V267.646H315.956V264.789Z" fill="#E6E6E6"/>
<path opacity="0.11" d="M336.588 264.789H321.425V267.646H336.588V264.789Z" fill="#E6E6E6"/>
<path opacity="0.11" d="M315.956 271.373H300.792V274.23H315.956V271.373Z" fill="#E6E6E6"/>
<path opacity="0.02" d="M336.588 271.373H321.425V274.23H336.588V271.373Z" fill="#E6E6E6"/>
<path opacity="0.27" d="M295.199 277.957H280.036V280.814H295.199V277.957Z" fill="#E6E6E6"/>
<path opacity="0.21" d="M315.956 277.957H300.792V280.814H315.956V277.957Z" fill="#E6E6E6"/>
<path opacity="0.49" d="M336.588 277.957H321.425V280.814H336.588V277.957Z" fill="#E6E6E6"/>
<path opacity="0.6" d="M295.199 284.541H280.036V287.398H295.199V284.541Z" fill="#E6E6E6"/>
<path opacity="0.31" d="M315.956 284.541H300.792V287.398H315.956V284.541Z" fill="#E6E6E6"/>
<path opacity="0.22" d="M336.588 284.541H321.425V287.398H336.588V284.541Z" fill="#E6E6E6"/>
<path opacity="0.54" d="M295.199 291.125H280.036V293.982H295.199V291.125Z" fill="#E6E6E6"/>
<path opacity="0.6" d="M315.956 291.125H300.792V293.982H315.956V291.125Z" fill="#E6E6E6"/>
<path opacity="0.08" d="M336.588 291.125H321.425V293.982H336.588V291.125Z" fill="#E6E6E6"/>
<path opacity="0.55" d="M315.956 297.708H300.792V300.565H315.956V297.708Z" fill="#E6E6E6"/>
<path d="M336.588 297.708H321.425V300.565H336.588V297.708Z" fill="#E6E6E6"/>
<path opacity="0.6" d="M296.194 172.616H295.199V300.565H296.194V172.616Z" fill="#E6E6E6"/>
<path opacity="0.6" d="M321.425 172.616H320.43V300.565H321.425V172.616Z" fill="#E6E6E6"/>
<path d="M371.017 165.411H339.695V324.789H371.017V165.411Z" fill="#4D4D4D"/>
<path opacity="0.69" d="M366.418 172.616H342.803V175.474H366.418V172.616Z" fill="#E6E6E6"/>
<path opacity="0.79" d="M366.418 179.2H342.803V182.057H366.418V179.2Z" fill="#E6E6E6"/>
<path opacity="0.19" d="M366.418 185.784H342.803V188.641H366.418V185.784Z" fill="#E6E6E6"/>
<path opacity="0.88" d="M366.418 192.368H342.803V195.225H366.418V192.368Z" fill="#E6E6E6"/>
<path opacity="0.5" d="M366.418 198.951H342.803V201.809H366.418V198.951Z" fill="#E6E6E6"/>
<path opacity="0.25" d="M366.418 205.535H342.803V208.392H366.418V205.535Z" fill="#E6E6E6"/>
<path opacity="0.91" d="M366.418 212.119H342.803V214.976H366.418V212.119Z" fill="#E6E6E6"/>
<path opacity="0.02" d="M366.418 218.703H342.803V221.56H366.418V218.703Z" fill="#E6E6E6"/>
<path opacity="0.53" d="M366.418 225.287H342.803V228.144H366.418V225.287Z" fill="#E6E6E6"/>
<path opacity="0.65" d="M366.418 231.87H342.803V234.727H366.418V231.87Z" fill="#E6E6E6"/>
<path d="M366.418 238.454H342.803V241.311H366.418V238.454Z" fill="#E6E6E6"/>
<path opacity="0.8" d="M366.418 245.038H342.803V247.895H366.418V245.038Z" fill="#E6E6E6"/>
<path opacity="0.82" d="M366.418 251.622H342.803V254.479H366.418V251.622Z" fill="#E6E6E6"/>
<path opacity="0.75" d="M366.418 258.206H342.803V261.063H366.418V258.206Z" fill="#E6E6E6"/>
<path opacity="0.31" d="M366.418 264.789H342.803V267.646H366.418V264.789Z" fill="#E6E6E6"/>
<path opacity="0.22" d="M366.418 271.373H342.803V274.23H366.418V271.373Z" fill="#E6E6E6"/>
<path opacity="0.43" d="M366.418 277.957H342.803V280.814H366.418V277.957Z" fill="#E6E6E6"/>
<path opacity="0.68" d="M366.418 284.541H342.803V287.398H366.418V284.541Z" fill="#E6E6E6"/>
<path opacity="0.38" d="M366.418 291.125H342.803V293.982H366.418V291.125Z" fill="#E6E6E6"/>
<path opacity="0.84" d="M366.418 297.708H342.803V300.565H366.418V297.708Z" fill="#E6E6E6"/>
<path d="M287.99 156.964V165.411H328.634V156.964H287.99ZM297.064 162.679H292.838V159.821H297.064V162.679ZM303.651 162.679H299.549V159.821H303.651V162.679ZM310.363 162.679H306.261V159.821H310.363V162.679ZM317.074 162.679H312.849V159.821H317.074V162.679ZM323.786 162.679H319.56V159.821H323.786V162.679Z" fill="#333333"/>
<path d="M336.091 159.822H334.972V162.679H336.091V159.822Z" fill="#333333"/>
<path d="M328.634 156.964V165.411H347.774V156.964H328.634ZM336.091 162.679H331.989V159.821H336.091V162.679ZM344.916 162.679H340.814V159.821H344.916V162.679Z" fill="#4D4D4D"/>
<path d="M344.791 159.822H343.673V162.679H344.791V159.822Z" fill="#333333"/>
<path d="M348.023 335.596H263.505L348.023 273.236V335.596Z" fill="#333333"/>
<path d="M221.992 131.623H215.156V157.586H221.992V131.623Z" fill="#4D4D4D"/>
<path d="M215.28 131.623H208.32V157.586H215.28V131.623Z" fill="#333333"/>
<path d="M229.076 131.623H222.116V157.586H229.076V131.623Z" fill="#666666"/>
<path d="M249.212 175.349H229.822V323.422H249.212V175.349Z" fill="#666666"/>
<path d="M207.077 175.349H190.173V323.422H207.077V175.349Z" fill="#333333"/>
<path d="M229.822 175.349H206.953V323.422H229.822V175.349Z" fill="#4D4D4D"/>
<path opacity="0.6" d="M195.021 179.697H192.535V321.435H195.021V179.697Z" fill="#E6E6E6"/>
<path opacity="0.6" d="M199.868 179.697H197.382V321.435H199.868V179.697Z" fill="#E6E6E6"/>
<path opacity="0.6" d="M204.715 179.697H202.229V321.435H204.715V179.697Z" fill="#E6E6E6"/>
<path d="M233.675 179.697H231.189V321.435H233.675V179.697Z" fill="#E6E6E6"/>
<path d="M238.522 179.697H236.037V321.435H238.522V179.697Z" fill="#E6E6E6"/>
<path d="M247.969 179.697H245.483V321.435H247.969V179.697Z" fill="#E6E6E6"/>
<path d="M243.37 179.697H240.884V321.435H243.37V179.697Z" fill="#E6E6E6"/>
<path opacity="0.8" d="M209.811 321.435H226.963V179.697H209.811V321.435ZM212.546 182.181H224.229V318.95H212.546V182.181Z" fill="#E6E6E6"/>
<path opacity="0.8" d="M214.783 316.59H222.116V184.417H214.783V316.59ZM217.269 187.523H218.139H218.636H219.63V313.484H218.636H218.139H217.269V187.523Z" fill="#E6E6E6"/>
<path opacity="0.8" d="M218.636 187.523H218.139V313.484H218.636V187.523Z" fill="#E6E6E6"/>
<path d="M227.212 149.387H210.06V175.349H227.212V149.387Z" fill="#4D4D4D"/>
<path d="M227.212 149.387H210.06V175.349H227.212V149.387Z" fill="#4D4D4D"/>
<path d="M244.364 149.387H227.212V175.349H244.364V149.387Z" fill="#666666"/>
<path d="M210.06 149.387H192.908V175.349H210.06V149.387Z" fill="#333333"/>
<path d="M228.952 131.623H208.32L215.156 136.343H222.116L228.952 131.623Z" fill="#808080"/>
<path d="M597.724 122.058H587.781V151.25H597.724V122.058Z" fill="#4D4D4D"/>
<path d="M587.656 122.058H577.713V151.25H587.656V122.058Z" fill="#333333"/>
<path d="M607.667 122.058H597.724V151.25H607.667V122.058Z" fill="#666666"/>
<path d="M637 171.374H608.91V338.204H637V171.374Z" fill="#666666"/>
<path d="M575.849 171.374H551.488V338.204H575.849V171.374Z" fill="#333333"/>
<path d="M608.91 171.374H575.849V338.204H608.91V171.374Z" fill="#4D4D4D"/>
<path opacity="0.4" d="M558.448 176.343H554.844V335.969H558.448V176.343Z" fill="#E6E6E6"/>
<path opacity="0.4" d="M565.533 176.343H561.928V335.969H565.533V176.343Z" fill="#E6E6E6"/>
<path opacity="0.4" d="M572.617 176.343H569.013V335.969H572.617V176.343Z" fill="#E6E6E6"/>
<path d="M614.503 176.343H610.899V335.969H614.503V176.343Z" fill="#E6E6E6"/>
<path d="M621.588 176.343H617.983V335.969H621.588V176.343Z" fill="#E6E6E6"/>
<path d="M635.136 176.343H631.531V335.969H635.136V176.343Z" fill="#E6E6E6"/>
<path d="M628.548 176.343H624.944V335.969H628.548V176.343Z" fill="#E6E6E6"/>
<path d="M580.075 335.969H604.933V176.343H580.075V335.969ZM583.928 179.076H600.831V333.236H583.928V179.076Z" fill="#E6E6E6"/>
<path d="M587.035 330.627H597.724V181.685H587.035V330.627ZM590.764 185.163H592.131H592.752H594.12V327.149H592.752H592.131H590.764V185.163Z" fill="#E6E6E6"/>
<path d="M592.752 185.163H592.131V327.149H592.752V185.163Z" fill="#E6E6E6"/>
<path d="M605.181 142.182H580.323V171.374H605.181V142.182Z" fill="#4D4D4D"/>
<path d="M605.181 142.182H580.323V171.374H605.181V142.182Z" fill="#4D4D4D"/>
<path d="M630.04 142.182H605.181V171.374H630.04V142.182Z" fill="#666666"/>
<path d="M580.448 142.182H555.589V171.374H580.448V142.182Z" fill="#333333"/>
<path d="M607.792 122.058H577.713L587.781 127.399H597.724L607.792 122.058Z" fill="#808080"/>
<path d="M526.008 194.479H458.021V217.088H526.008V194.479Z" fill="#E6E6E6"/>
<path d="M484.743 194.479H458.021V217.088H484.743V194.479Z" fill="#B3B3B3"/>
<path d="M484.743 217.212H431.92V327.025H484.743V217.212Z" fill="#333333"/>
<path d="M567.273 217.212H484.743V327.025H567.273V217.212Z" fill="#4D4D4D"/>
<path d="M478.28 206.032H437.637V217.212H478.28V206.032Z" fill="#333333"/>
<path d="M554.968 206.032H496.924V217.212H554.968V206.032Z" fill="#4D4D4D"/>
<path d="M507.986 185.908H484.743V194.479H507.986V185.908Z" fill="#E6E6E6"/>
<path d="M496.302 177.213H484.743V185.784H496.302V177.213Z" fill="#4D4D4D"/>
<path d="M484.619 177.213H473.06V185.784H484.619V177.213Z" fill="#333333"/>
<path d="M484.743 185.908H466.97V194.479H484.743V185.908Z" fill="#B3B3B3"/>
<path d="M483.998 177.213L484.743 157.337L485.365 177.213H483.998Z" fill="#333333"/>
<path opacity="0.12" d="M448.575 221.684H444.224V226.032H448.575V221.684Z" fill="white"/>
<path opacity="0.25" d="M454.541 221.684H450.19V226.032H454.541V221.684Z" fill="white"/>
<path opacity="0.36" d="M460.506 221.684H456.156V226.032H460.506V221.684Z" fill="white"/>
<path opacity="0.12" d="M466.472 221.684H462.122V226.032H466.472V221.684Z" fill="white"/>
<path opacity="0.14" d="M472.438 221.684H468.088V226.032H472.438V221.684Z" fill="white"/>
<path opacity="0.28" d="M448.575 227.399H444.224V231.746H448.575V227.399Z" fill="white"/>
<path opacity="0.4" d="M454.541 227.399H450.19V231.746H454.541V227.399Z" fill="white"/>
<path opacity="0.16" d="M460.506 227.399H456.156V231.746H460.506V227.399Z" fill="white"/>
<path opacity="0.17" d="M472.438 227.399H468.088V231.746H472.438V227.399Z" fill="white"/>
<path opacity="0.27" d="M448.575 233.113H444.224V237.461H448.575V233.113Z" fill="white"/>
<path opacity="0.45" d="M454.541 233.113H450.19V237.461H454.541V233.113Z" fill="white"/>
<path opacity="0.45" d="M460.506 233.113H456.156V237.461H460.506V233.113Z" fill="white"/>
<path opacity="0.48" d="M466.472 233.113H462.122V237.461H466.472V233.113Z" fill="white"/>
<path opacity="0.25" d="M472.438 233.113H468.088V237.461H472.438V233.113Z" fill="white"/>
<path opacity="0.28" d="M448.575 238.827H444.224V243.175H448.575V238.827Z" fill="white"/>
<path opacity="0.13" d="M454.541 238.827H450.19V243.175H454.541V238.827Z" fill="white"/>
<path opacity="0.07" d="M460.506 238.827H456.156V243.175H460.506V238.827Z" fill="white"/>
<path opacity="0.39" d="M466.472 238.827H462.122V243.175H466.472V238.827Z" fill="white"/>
<path opacity="0.47" d="M472.438 238.827H468.088V243.175H472.438V238.827Z" fill="white"/>
<path opacity="0.28" d="M448.575 244.541H444.224V248.889H448.575V244.541Z" fill="white"/>
<path opacity="0.2" d="M454.541 244.541H450.19V248.889H454.541V244.541Z" fill="white"/>
<path opacity="0.04" d="M460.506 244.541H456.156V248.889H460.506V244.541Z" fill="white"/>
<path opacity="0.43" d="M466.472 244.541H462.122V248.889H466.472V244.541Z" fill="white"/>
<path opacity="0.48" d="M472.438 244.541H468.088V248.889H472.438V244.541Z" fill="white"/>
<path opacity="0.28" d="M448.575 250.255H444.224V254.603H448.575V250.255Z" fill="white"/>
<path opacity="0.19" d="M454.541 250.255H450.19V254.603H454.541V250.255Z" fill="white"/>
<path opacity="0.01" d="M460.506 250.255H456.156V254.603H460.506V250.255Z" fill="white"/>
<path opacity="0.27" d="M466.472 250.255H462.122V254.603H466.472V250.255Z" fill="white"/>
<path opacity="0.24" d="M472.438 250.255H468.088V254.603H472.438V250.255Z" fill="white"/>
<path opacity="0.07" d="M448.575 256.094H444.224V260.442H448.575V256.094Z" fill="white"/>
<path opacity="0.25" d="M454.541 256.094H450.19V260.442H454.541V256.094Z" fill="white"/>
<path opacity="0.26" d="M460.506 256.094H456.156V260.442H460.506V256.094Z" fill="white"/>
<path opacity="0.39" d="M466.472 256.094H462.122V260.442H466.472V256.094Z" fill="white"/>
<path opacity="0.22" d="M472.438 256.094H468.088V260.442H472.438V256.094Z" fill="white"/>
<path opacity="0.15" d="M448.575 261.808H444.224V266.156H448.575V261.808Z" fill="white"/>
<path opacity="0.23" d="M454.541 261.808H450.19V266.156H454.541V261.808Z" fill="white"/>
<path opacity="0.05" d="M460.506 261.808H456.156V266.156H460.506V261.808Z" fill="white"/>
<path opacity="0.2" d="M466.472 261.808H462.122V266.156H466.472V261.808Z" fill="white"/>
<path opacity="0.31" d="M472.438 261.808H468.088V266.156H472.438V261.808Z" fill="white"/>
<path opacity="0.15" d="M448.575 267.522H444.224V271.87H448.575V267.522Z" fill="white"/>
<path opacity="0.33" d="M454.541 267.522H450.19V271.87H454.541V267.522Z" fill="white"/>
<path opacity="0.46" d="M460.506 267.522H456.156V271.87H460.506V267.522Z" fill="white"/>
<path opacity="0.25" d="M466.472 267.522H462.122V271.87H466.472V267.522Z" fill="white"/>
<path opacity="0.43" d="M472.438 267.522H468.088V271.87H472.438V267.522Z" fill="white"/>
<path opacity="0.4" d="M448.575 273.237H444.224V277.584H448.575V273.237Z" fill="white"/>
<path opacity="0.39" d="M454.541 273.237H450.19V277.584H454.541V273.237Z" fill="white"/>
<path opacity="0.01" d="M460.506 273.237H456.156V277.584H460.506V273.237Z" fill="white"/>
<path opacity="0.12" d="M466.472 273.237H462.122V277.584H466.472V273.237Z" fill="white"/>
<path opacity="0.07" d="M472.438 273.237H468.088V277.584H472.438V273.237Z" fill="white"/>
<path opacity="0.07" d="M448.575 278.951H444.224V283.299H448.575V278.951Z" fill="white"/>
<path opacity="0.02" d="M454.541 278.951H450.19V283.299H454.541V278.951Z" fill="white"/>
<path opacity="0.12" d="M460.506 278.951H456.156V283.299H460.506V278.951Z" fill="white"/>
<path opacity="0.23" d="M466.472 278.951H462.122V283.299H466.472V278.951Z" fill="white"/>
<path opacity="0.26" d="M472.438 278.951H468.088V283.299H472.438V278.951Z" fill="white"/>
<path opacity="0.27" d="M448.575 284.665H444.224V289.013H448.575V284.665Z" fill="white"/>
<path opacity="0.38" d="M454.541 284.665H450.19V289.013H454.541V284.665Z" fill="white"/>
<path opacity="0.05" d="M460.506 284.665H456.156V289.013H460.506V284.665Z" fill="white"/>
<path opacity="0.45" d="M466.472 284.665H462.122V289.013H466.472V284.665Z" fill="white"/>
<path opacity="0.15" d="M472.438 284.665H468.088V289.013H472.438V284.665Z" fill="white"/>
<path opacity="0.06" d="M448.575 290.379H444.224V294.727H448.575V290.379Z" fill="white"/>
<path opacity="0.47" d="M454.541 290.379H450.19V294.727H454.541V290.379Z" fill="white"/>
<path opacity="0.15" d="M460.506 290.379H456.156V294.727H460.506V290.379Z" fill="white"/>
<path opacity="0.44" d="M466.472 290.379H462.122V294.727H466.472V290.379Z" fill="white"/>
<path opacity="0.14" d="M472.438 290.379H468.088V294.727H472.438V290.379Z" fill="white"/>
<path opacity="0.15" d="M448.575 296.094H444.224V300.441H448.575V296.094Z" fill="white"/>
<path opacity="0.43" d="M454.541 296.094H450.19V300.441H454.541V296.094Z" fill="white"/>
<path opacity="0.07" d="M460.506 296.094H456.156V300.441H460.506V296.094Z" fill="white"/>
<path opacity="0.47" d="M466.472 296.094H462.122V300.441H466.472V296.094Z" fill="white"/>
<path opacity="0.11" d="M472.438 296.094H468.088V300.441H472.438V296.094Z" fill="white"/>
<path opacity="0.07" d="M448.575 301.808H444.224V306.155H448.575V301.808Z" fill="white"/>
<path opacity="0.34" d="M454.541 301.808H450.19V306.155H454.541V301.808Z" fill="white"/>
<path opacity="0.5" d="M460.506 301.808H456.156V306.155H460.506V301.808Z" fill="white"/>
<path opacity="0.36" d="M466.472 301.808H462.122V306.155H466.472V301.808Z" fill="white"/>
<path opacity="0.34" d="M472.438 301.808H468.088V306.155H472.438V301.808Z" fill="white"/>
<path opacity="0.47" d="M448.575 307.522H444.224V311.87H448.575V307.522Z" fill="white"/>
<path opacity="0.41" d="M454.541 307.522H450.19V311.87H454.541V307.522Z" fill="white"/>
<path opacity="0.3" d="M460.506 307.522H456.156V311.87H460.506V307.522Z" fill="white"/>
<path opacity="0.33" d="M466.472 307.522H462.122V311.87H466.472V307.522Z" fill="white"/>
<path opacity="0.12" d="M472.438 307.522H468.088V311.87H472.438V307.522Z" fill="white"/>
<path opacity="0.3" d="M499.161 221.684H494.811V226.032H499.161V221.684Z" fill="white"/>
<path opacity="0.72" d="M504.878 221.684H500.528V226.032H504.878V221.684Z" fill="white"/>
<path opacity="0.7" d="M510.72 221.684H506.37V226.032H510.72V221.684Z" fill="white"/>
<path opacity="0.52" d="M516.562 221.684H512.212V226.032H516.562V221.684Z" fill="white"/>
<path opacity="0.2" d="M522.404 221.684H518.053V226.032H522.404V221.684Z" fill="white"/>
<path opacity="0.32" d="M528.121 221.684H523.771V226.032H528.121V221.684Z" fill="white"/>
<path opacity="0.13" d="M533.963 221.684H529.612V226.032H533.963V221.684Z" fill="white"/>
<path opacity="0.38" d="M539.804 221.684H535.454V226.032H539.804V221.684Z" fill="white"/>
<path opacity="0.61" d="M545.522 221.684H541.172V226.032H545.522V221.684Z" fill="white"/>
<path d="M551.363 221.684H547.013V226.032H551.363V221.684Z" fill="white"/>
<path opacity="0.91" d="M557.205 221.684H552.855V226.032H557.205V221.684Z" fill="white"/>
<path opacity="0.66" d="M499.161 227.399H494.811V231.746H499.161V227.399Z" fill="white"/>
<path opacity="0.31" d="M504.878 227.399H500.528V231.746H504.878V227.399Z" fill="white"/>
<path opacity="0.95" d="M510.72 227.399H506.37V231.746H510.72V227.399Z" fill="white"/>
<path opacity="0.7" d="M516.562 227.399H512.212V231.746H516.562V227.399Z" fill="white"/>
<path opacity="0.12" d="M522.404 227.399H518.053V231.746H522.404V227.399Z" fill="white"/>
<path opacity="0.24" d="M528.121 227.399H523.771V231.746H528.121V227.399Z" fill="white"/>
<path opacity="0.66" d="M533.963 227.399H529.612V231.746H533.963V227.399Z" fill="white"/>
<path opacity="0.71" d="M539.804 227.399H535.454V231.746H539.804V227.399Z" fill="white"/>
<path opacity="0.42" d="M545.522 227.399H541.172V231.746H545.522V227.399Z" fill="white"/>
<path opacity="0.09" d="M551.363 227.399H547.013V231.746H551.363V227.399Z" fill="white"/>
<path opacity="0.32" d="M557.205 227.399H552.855V231.746H557.205V227.399Z" fill="white"/>
<path opacity="0.65" d="M499.161 233.113H494.811V237.461H499.161V233.113Z" fill="white"/>
<path d="M504.878 233.113H500.528V237.461H504.878V233.113Z" fill="white"/>
<path d="M510.72 233.113H506.37V237.461H510.72V233.113Z" fill="white"/>
<path opacity="0.71" d="M516.562 233.113H512.212V237.461H516.562V233.113Z" fill="white"/>
<path opacity="0.2" d="M522.404 233.113H518.053V237.461H522.404V233.113Z" fill="white"/>
<path opacity="0.19" d="M528.121 233.113H523.771V237.461H528.121V233.113Z" fill="white"/>
<path opacity="0.62" d="M533.963 233.113H529.612V237.461H533.963V233.113Z" fill="white"/>
<path opacity="0.93" d="M539.804 233.113H535.454V237.461H539.804V233.113Z" fill="white"/>
<path opacity="0.56" d="M545.522 233.113H541.172V237.461H545.522V233.113Z" fill="white"/>
<path opacity="0.57" d="M551.363 233.113H547.013V237.461H551.363V233.113Z" fill="white"/>
<path opacity="0.52" d="M557.205 233.113H552.855V237.461H557.205V233.113Z" fill="white"/>
<path opacity="0.74" d="M499.161 238.827H494.811V243.175H499.161V238.827Z" fill="white"/>
<path opacity="0.56" d="M504.878 238.827H500.528V243.175H504.878V238.827Z" fill="white"/>
<path opacity="0.78" d="M510.72 238.827H506.37V243.175H510.72V238.827Z" fill="white"/>
<path opacity="0.41" d="M516.562 238.827H512.212V243.175H516.562V238.827Z" fill="white"/>
<path opacity="0.14" d="M522.404 238.827H518.053V243.175H522.404V238.827Z" fill="white"/>
<path opacity="0.28" d="M528.121 238.827H523.771V243.175H528.121V238.827Z" fill="white"/>
<path opacity="0.36" d="M533.963 238.827H529.612V243.175H533.963V238.827Z" fill="white"/>
<path opacity="0.14" d="M539.804 238.827H535.454V243.175H539.804V238.827Z" fill="white"/>
<path opacity="0.5" d="M545.522 238.827H541.172V243.175H545.522V238.827Z" fill="white"/>
<path opacity="0.98" d="M551.363 238.827H547.013V243.175H551.363V238.827Z" fill="white"/>
<path opacity="0.59" d="M557.205 238.827H552.855V243.175H557.205V238.827Z" fill="white"/>
<path opacity="0.07" d="M499.161 244.541H494.811V248.889H499.161V244.541Z" fill="white"/>
<path opacity="0.1" d="M504.878 244.541H500.528V248.889H504.878V244.541Z" fill="white"/>
<path opacity="0.88" d="M510.72 244.541H506.37V248.889H510.72V244.541Z" fill="white"/>
<path opacity="0.68" d="M516.562 244.541H512.212V248.889H516.562V244.541Z" fill="white"/>
<path opacity="0.81" d="M522.404 244.541H518.053V248.889H522.404V244.541Z" fill="white"/>
<path opacity="0.62" d="M528.121 244.541H523.771V248.889H528.121V244.541Z" fill="white"/>
<path opacity="0.97" d="M533.963 244.541H529.612V248.889H533.963V244.541Z" fill="white"/>
<path opacity="0.81" d="M539.804 244.541H535.454V248.889H539.804V244.541Z" fill="white"/>
<path opacity="0.79" d="M545.522 244.541H541.172V248.889H545.522V244.541Z" fill="white"/>
<path opacity="0.03" d="M551.363 244.541H547.013V248.889H551.363V244.541Z" fill="white"/>
<path opacity="0.95" d="M557.205 244.541H552.855V248.889H557.205V244.541Z" fill="white"/>
<path opacity="0.62" d="M499.161 250.255H494.811V254.603H499.161V250.255Z" fill="white"/>
<path opacity="0.22" d="M504.878 250.255H500.528V254.603H504.878V250.255Z" fill="white"/>
<path opacity="0.42" d="M510.72 250.255H506.37V254.603H510.72V250.255Z" fill="white"/>
<path opacity="0.56" d="M516.562 250.255H512.212V254.603H516.562V250.255Z" fill="white"/>
<path opacity="0.03" d="M522.404 250.255H518.053V254.603H522.404V250.255Z" fill="white"/>
<path opacity="0.64" d="M528.121 250.255H523.771V254.603H528.121V250.255Z" fill="white"/>
<path opacity="0.82" d="M533.963 250.255H529.612V254.603H533.963V250.255Z" fill="white"/>
<path opacity="0.52" d="M539.804 250.255H535.454V254.603H539.804V250.255Z" fill="white"/>
<path opacity="0.46" d="M545.522 250.255H541.172V254.603H545.522V250.255Z" fill="white"/>
<path opacity="0.27" d="M551.363 250.255H547.013V254.603H551.363V250.255Z" fill="white"/>
<path opacity="0.46" d="M557.205 250.255H552.855V254.603H557.205V250.255Z" fill="white"/>
<path opacity="0.66" d="M499.161 256.094H494.811V260.442H499.161V256.094Z" fill="white"/>
<path opacity="0.7" d="M504.878 256.094H500.528V260.442H504.878V256.094Z" fill="white"/>
<path opacity="0.94" d="M510.72 256.094H506.37V260.442H510.72V256.094Z" fill="white"/>
<path opacity="0.5" d="M516.562 256.094H512.212V260.442H516.562V256.094Z" fill="white"/>
<path opacity="0.12" d="M522.404 256.094H518.053V260.442H522.404V256.094Z" fill="white"/>
<path opacity="0.36" d="M528.121 256.094H523.771V260.442H528.121V256.094Z" fill="white"/>
<path opacity="0.51" d="M533.963 256.094H529.612V260.442H533.963V256.094Z" fill="white"/>
<path opacity="0.37" d="M539.804 256.094H535.454V260.442H539.804V256.094Z" fill="white"/>
<path opacity="0.66" d="M545.522 256.094H541.172V260.442H545.522V256.094Z" fill="white"/>
<path opacity="0.42" d="M551.363 256.094H547.013V260.442H551.363V256.094Z" fill="white"/>
<path opacity="0.5" d="M557.205 256.094H552.855V260.442H557.205V256.094Z" fill="white"/>
<path opacity="0.52" d="M499.161 261.808H494.811V266.156H499.161V261.808Z" fill="white"/>
<path opacity="0.61" d="M504.878 261.808H500.528V266.156H504.878V261.808Z" fill="white"/>
<path opacity="0.84" d="M510.72 261.808H506.37V266.156H510.72V261.808Z" fill="white"/>
<path opacity="0.89" d="M516.562 261.808H512.212V266.156H516.562V261.808Z" fill="white"/>
<path opacity="0.33" d="M522.404 261.808H518.053V266.156H522.404V261.808Z" fill="white"/>
<path opacity="0.25" d="M528.121 261.808H523.771V266.156H528.121V261.808Z" fill="white"/>
<path opacity="0.95" d="M533.963 261.808H529.612V266.156H533.963V261.808Z" fill="white"/>
<path opacity="0.09" d="M539.804 261.808H535.454V266.156H539.804V261.808Z" fill="white"/>
<path opacity="0.44" d="M545.522 261.808H541.172V266.156H545.522V261.808Z" fill="white"/>
<path opacity="0.51" d="M551.363 261.808H547.013V266.156H551.363V261.808Z" fill="white"/>
<path opacity="0.97" d="M557.205 261.808H552.855V266.156H557.205V261.808Z" fill="white"/>
<path opacity="0.26" d="M499.161 267.522H494.811V271.87H499.161V267.522Z" fill="white"/>
<path opacity="0.92" d="M504.878 267.522H500.528V271.87H504.878V267.522Z" fill="white"/>
<path opacity="0.33" d="M510.72 267.522H506.37V271.87H510.72V267.522Z" fill="white"/>
<path opacity="0.23" d="M516.562 267.522H512.212V271.87H516.562V267.522Z" fill="white"/>
<path opacity="0.42" d="M522.404 267.522H518.053V271.87H522.404V267.522Z" fill="white"/>
<path opacity="0.57" d="M528.121 267.522H523.771V271.87H528.121V267.522Z" fill="white"/>
<path opacity="0.73" d="M533.963 267.522H529.612V271.87H533.963V267.522Z" fill="white"/>
<path opacity="0.87" d="M539.804 267.522H535.454V271.87H539.804V267.522Z" fill="white"/>
<path opacity="0.22" d="M545.522 267.522H541.172V271.87H545.522V267.522Z" fill="white"/>
<path opacity="0.89" d="M551.363 267.522H547.013V271.87H551.363V267.522Z" fill="white"/>
<path opacity="0.73" d="M557.205 267.522H552.855V271.87H557.205V267.522Z" fill="white"/>
<path opacity="0.35" d="M499.161 273.237H494.811V277.584H499.161V273.237Z" fill="white"/>
<path opacity="0.81" d="M504.878 273.237H500.528V277.584H504.878V273.237Z" fill="white"/>
<path opacity="0.56" d="M510.72 273.237H506.37V277.584H510.72V273.237Z" fill="white"/>
<path opacity="0.81" d="M516.562 273.237H512.212V277.584H516.562V273.237Z" fill="white"/>
<path opacity="0.87" d="M522.404 273.237H518.053V277.584H522.404V273.237Z" fill="white"/>
<path opacity="0.39" d="M528.121 273.237H523.771V277.584H528.121V273.237Z" fill="white"/>
<path opacity="0.31" d="M533.963 273.237H529.612V277.584H533.963V273.237Z" fill="white"/>
<path opacity="0.98" d="M539.804 273.237H535.454V277.584H539.804V273.237Z" fill="white"/>
<path opacity="0.17" d="M545.522 273.237H541.172V277.584H545.522V273.237Z" fill="white"/>
<path opacity="0.06" d="M551.363 273.237H547.013V277.584H551.363V273.237Z" fill="white"/>
<path opacity="0.57" d="M557.205 273.237H552.855V277.584H557.205V273.237Z" fill="white"/>
<path opacity="0.67" d="M499.161 278.951H494.811V283.299H499.161V278.951Z" fill="white"/>
<path opacity="0.83" d="M504.878 278.951H500.528V283.299H504.878V278.951Z" fill="white"/>
<path opacity="0.99" d="M510.72 278.951H506.37V283.299H510.72V278.951Z" fill="white"/>
<path opacity="0.62" d="M516.562 278.951H512.212V283.299H516.562V278.951Z" fill="white"/>
<path opacity="0.87" d="M522.404 278.951H518.053V283.299H522.404V278.951Z" fill="white"/>
<path opacity="0.14" d="M528.121 278.951H523.771V283.299H528.121V278.951Z" fill="white"/>
<path opacity="0.12" d="M533.963 278.951H529.612V283.299H533.963V278.951Z" fill="white"/>
<path opacity="0.11" d="M539.804 278.951H535.454V283.299H539.804V278.951Z" fill="white"/>
<path opacity="0.39" d="M545.522 278.951H541.172V283.299H545.522V278.951Z" fill="white"/>
<path opacity="0.58" d="M551.363 278.951H547.013V283.299H551.363V278.951Z" fill="white"/>
<path opacity="0.54" d="M557.205 278.951H552.855V283.299H557.205V278.951Z" fill="white"/>
<path opacity="0.99" d="M499.161 284.665H494.811V289.013H499.161V284.665Z" fill="white"/>
<path opacity="0.28" d="M504.878 284.665H500.528V289.013H504.878V284.665Z" fill="white"/>
<path opacity="0.78" d="M510.72 284.665H506.37V289.013H510.72V284.665Z" fill="white"/>
<path opacity="0.65" d="M516.562 284.665H512.212V289.013H516.562V284.665Z" fill="white"/>
<path opacity="0.32" d="M522.404 284.665H518.053V289.013H522.404V284.665Z" fill="white"/>
<path opacity="0.55" d="M528.121 284.665H523.771V289.013H528.121V284.665Z" fill="white"/>
<path opacity="0.4" d="M533.963 284.665H529.612V289.013H533.963V284.665Z" fill="white"/>
<path opacity="0.22" d="M539.804 284.665H535.454V289.013H539.804V284.665Z" fill="white"/>
<path opacity="0.87" d="M545.522 284.665H541.172V289.013H545.522V284.665Z" fill="white"/>
<path opacity="0.02" d="M551.363 284.665H547.013V289.013H551.363V284.665Z" fill="white"/>
<path opacity="0.39" d="M557.205 284.665H552.855V289.013H557.205V284.665Z" fill="white"/>
<path opacity="0.89" d="M499.161 290.379H494.811V294.727H499.161V290.379Z" fill="white"/>
<path opacity="0.97" d="M504.878 290.379H500.528V294.727H504.878V290.379Z" fill="white"/>
<path opacity="0.79" d="M510.72 290.379H506.37V294.727H510.72V290.379Z" fill="white"/>
<path opacity="0.41" d="M516.562 290.379H512.212V294.727H516.562V290.379Z" fill="white"/>
<path opacity="0.13" d="M522.404 290.379H518.053V294.727H522.404V290.379Z" fill="white"/>
<path opacity="0.9" d="M528.121 290.379H523.771V294.727H528.121V290.379Z" fill="white"/>
<path opacity="0.98" d="M533.963 290.379H529.612V294.727H533.963V290.379Z" fill="white"/>
<path opacity="0.67" d="M539.804 290.379H535.454V294.727H539.804V290.379Z" fill="white"/>
<path opacity="0.65" d="M545.522 290.379H541.172V294.727H545.522V290.379Z" fill="white"/>
<path opacity="0.89" d="M551.363 290.379H547.013V294.727H551.363V290.379Z" fill="white"/>
<path opacity="0.98" d="M557.205 290.379H552.855V294.727H557.205V290.379Z" fill="white"/>
<path opacity="0.29" d="M499.161 296.094H494.811V300.441H499.161V296.094Z" fill="white"/>
<path opacity="0.74" d="M504.878 296.094H500.528V300.441H504.878V296.094Z" fill="white"/>
<path opacity="0.64" d="M510.72 296.094H506.37V300.441H510.72V296.094Z" fill="white"/>
<path opacity="0.65" d="M516.562 296.094H512.212V300.441H516.562V296.094Z" fill="white"/>
<path opacity="0.07" d="M522.404 296.094H518.053V300.441H522.404V296.094Z" fill="white"/>
<path opacity="0.16" d="M528.121 296.094H523.771V300.441H528.121V296.094Z" fill="white"/>
<path opacity="0.84" d="M533.963 296.094H529.612V300.441H533.963V296.094Z" fill="white"/>
<path opacity="0.88" d="M539.804 296.094H535.454V300.441H539.804V296.094Z" fill="white"/>
<path opacity="0.57" d="M545.522 296.094H541.172V300.441H545.522V296.094Z" fill="white"/>
<path opacity="0.31" d="M551.363 296.094H547.013V300.441H551.363V296.094Z" fill="white"/>
<path opacity="0.03" d="M557.205 296.094H552.855V300.441H557.205V296.094Z" fill="white"/>
<path opacity="0.3" d="M499.161 301.808H494.811V306.155H499.161V301.808Z" fill="white"/>
<path opacity="0.59" d="M504.878 301.808H500.528V306.155H504.878V301.808Z" fill="white"/>
<path opacity="0.93" d="M510.72 301.808H506.37V306.155H510.72V301.808Z" fill="white"/>
<path opacity="0.06" d="M516.562 301.808H512.212V306.155H516.562V301.808Z" fill="white"/>
<path opacity="0.74" d="M522.404 301.808H518.053V306.155H522.404V301.808Z" fill="white"/>
<path opacity="0.22" d="M528.121 301.808H523.771V306.155H528.121V301.808Z" fill="white"/>
<path opacity="0.51" d="M533.963 301.808H529.612V306.155H533.963V301.808Z" fill="white"/>
<path opacity="0.7" d="M539.804 301.808H535.454V306.155H539.804V301.808Z" fill="white"/>
<path opacity="0.47" d="M545.522 301.808H541.172V306.155H545.522V301.808Z" fill="white"/>
<path opacity="0.08" d="M551.363 301.808H547.013V306.155H551.363V301.808Z" fill="white"/>
<path opacity="0.93" d="M557.205 301.808H552.855V306.155H557.205V301.808Z" fill="white"/>
<path opacity="0.81" d="M499.161 307.522H494.811V311.87H499.161V307.522Z" fill="white"/>
<path opacity="0.9" d="M504.878 307.522H500.528V311.87H504.878V307.522Z" fill="white"/>
<path opacity="0.55" d="M510.72 307.522H506.37V311.87H510.72V307.522Z" fill="white"/>
<path opacity="0.14" d="M516.562 307.522H512.212V311.87H516.562V307.522Z" fill="white"/>
<path opacity="0.66" d="M522.404 307.522H518.053V311.87H522.404V307.522Z" fill="white"/>
<path opacity="0.92" d="M528.121 307.522H523.771V311.87H528.121V307.522Z" fill="white"/>
<path opacity="0.4" d="M533.963 307.522H529.612V311.87H533.963V307.522Z" fill="white"/>
<path opacity="0.6" d="M539.804 307.522H535.454V311.87H539.804V307.522Z" fill="white"/>
<path opacity="0.99" d="M545.522 307.522H541.172V311.87H545.522V307.522Z" fill="white"/>
<path opacity="0.68" d="M551.363 307.522H547.013V311.87H551.363V307.522Z" fill="white"/>
<path opacity="0.01" d="M557.205 307.522H552.855V311.87H557.205V307.522Z" fill="white"/>
<path d="M425.705 193.734H384.689V322.18H425.705V193.734Z" fill="#333333"/>
<path d="M403.333 187.274H384.689V194.479H403.333V187.274Z" fill="#333333"/>
<path d="M395.502 183.051H384.689V187.275H395.502V183.051Z" fill="#333333"/>
<path opacity="0.25" d="M408.429 202.802H401.717V209.51H408.429V202.802Z" fill="white"/>
<path opacity="0.15" d="M408.429 219.324H401.717V226.032H408.429V219.324Z" fill="white"/>
<path opacity="0.19" d="M408.429 252.243H401.717V258.951H408.429V252.243Z" fill="white"/>
<path opacity="0.17" d="M408.429 268.64H401.717V275.348H408.429V268.64Z" fill="white"/>
<path opacity="0.22" d="M408.429 285.037H401.717V291.745H408.429V285.037Z" fill="white"/>
<path d="M408.429 301.559H401.717V308.267H408.429V301.559Z" fill="white"/>
<path d="M395.254 265.286H356.848V276.591H395.254V265.286Z" fill="#333333"/>
<path d="M414.394 265.286H395.254V276.591H414.394V265.286Z" fill="#4D4D4D"/>
<path d="M356.848 265.286L368.78 259.572L395.254 265.286H356.848Z" fill="#333333"/>
<path d="M368.78 259.572L395.254 265.286H414.394L368.78 259.572Z" fill="#4D4D4D"/>
<path d="M404.203 273.236H348.023V324.664H404.203V273.236Z" fill="#333333"/>
<path d="M422.846 273.236H404.203V324.664H422.846V273.236Z" fill="#4D4D4D"/>
<path opacity="0.81" d="M418.496 276.839H408.429V280.565H418.496V276.839Z" fill="white"/>
<path opacity="0.76" d="M418.496 283.671H408.429V287.398H418.496V283.671Z" fill="white"/>
<path opacity="0.32" d="M418.496 290.503H408.429V294.23H418.496V290.503Z" fill="white"/>
<path opacity="0.49" d="M418.496 297.46H408.429V301.186H418.496V297.46Z" fill="white"/>
<path opacity="0.1" d="M367.04 276.839H356.972V280.565H367.04V276.839Z" fill="white"/>
<path opacity="0.04" d="M381.084 276.839H371.017V280.565H381.084V276.839Z" fill="white"/>
<path opacity="0.07" d="M395.254 276.839H385.186V280.565H395.254V276.839Z" fill="white"/>
<path opacity="0.06" d="M367.04 283.671H356.972V287.398H367.04V283.671Z" fill="white"/>
<path opacity="0.44" d="M381.084 283.671H371.017V287.398H381.084V283.671Z" fill="white"/>
<path opacity="0.24" d="M395.254 283.671H385.186V287.398H395.254V283.671Z" fill="white"/>
<path opacity="0.55" d="M367.04 290.503H356.972V294.23H367.04V290.503Z" fill="white"/>
<path opacity="0.02" d="M381.084 290.503H371.017V294.23H381.084V290.503Z" fill="white"/>
<path opacity="0.14" d="M395.254 290.503H385.186V294.23H395.254V290.503Z" fill="white"/>
<path opacity="0.43" d="M367.04 297.46H356.972V301.186H367.04V297.46Z" fill="white"/>
<path opacity="0.41" d="M381.084 297.46H371.017V301.186H381.084V297.46Z" fill="white"/>
<path opacity="0.46" d="M395.254 297.46H385.186V301.186H395.254V297.46Z" fill="white"/>
<path opacity="0.45" d="M367.04 304.292H356.972V308.019H367.04V304.292Z" fill="white"/>
<path opacity="0.33" d="M381.084 304.292H371.017V308.019H381.084V304.292Z" fill="white"/>
<path opacity="0.05" d="M395.254 304.292H385.186V308.019H395.254V304.292Z" fill="white"/>
<path d="M130.886 221.808H96.0847V329.012H130.886V221.808Z" fill="#333333"/>
<path d="M170.535 221.808H131.011V329.012H170.535V221.808Z" fill="#4D4D4D"/>
<path d="M130.886 230.877H96.0847V232.74H130.886V230.877Z" fill="#4D4D4D"/>
<path d="M170.535 230.877H131.011V232.74H170.535V230.877Z" fill="#333333"/>
<path opacity="0.47" d="M102.672 234.852H98.9435V238.578H102.672V234.852Z" fill="white"/>
<path opacity="0.26" d="M107.768 234.852H104.039V238.578H107.768V234.852Z" fill="white"/>
<path opacity="0.32" d="M112.864 234.852H109.135V238.578H112.864V234.852Z" fill="white"/>
<path opacity="0.25" d="M117.96 234.852H114.231V238.578H117.96V234.852Z" fill="white"/>
<path opacity="0.12" d="M128.152 234.852H124.423V238.578H128.152V234.852Z" fill="white"/>
<path opacity="0.32" d="M102.672 239.945H98.9435V243.671H102.672V239.945Z" fill="white"/>
<path opacity="0.22" d="M112.864 239.945H109.135V243.671H112.864V239.945Z" fill="white"/>
<path opacity="0.47" d="M117.96 239.945H114.231V243.671H117.96V239.945Z" fill="white"/>
<path opacity="0.22" d="M123.056 239.945H119.327V243.671H123.056V239.945Z" fill="white"/>
<path opacity="0.32" d="M128.152 239.945H124.423V243.671H128.152V239.945Z" fill="white"/>
<path opacity="0.37" d="M102.672 245.038H98.9435V248.765H102.672V245.038Z" fill="white"/>
<path opacity="0.34" d="M107.768 245.038H104.039V248.765H107.768V245.038Z" fill="white"/>
<path opacity="0.18" d="M112.864 245.038H109.135V248.765H112.864V245.038Z" fill="white"/>
<path opacity="0.28" d="M117.96 245.038H114.231V248.765H117.96V245.038Z" fill="white"/>
<path opacity="0.2" d="M128.152 245.038H124.423V248.765H128.152V245.038Z" fill="white"/>
<path opacity="0.18" d="M102.672 250.131H98.9435V253.858H102.672V250.131Z" fill="white"/>
<path opacity="0.33" d="M112.864 250.131H109.135V253.858H112.864V250.131Z" fill="white"/>
<path opacity="0.05" d="M117.96 250.131H114.231V253.858H117.96V250.131Z" fill="white"/>
<path opacity="0.08" d="M123.056 250.131H119.327V253.858H123.056V250.131Z" fill="white"/>
<path opacity="0.08" d="M117.96 255.224H114.231V258.951H117.96V255.224Z" fill="white"/>
<path opacity="0.02" d="M123.056 255.224H119.327V258.951H123.056V255.224Z" fill="white"/>
<path opacity="0.03" d="M102.672 260.317H98.9435V264.044H102.672V260.317Z" fill="white"/>
<path opacity="0.46" d="M107.768 260.317H104.039V264.044H107.768V260.317Z" fill="white"/>
<path opacity="0.05" d="M112.864 260.317H109.135V264.044H112.864V260.317Z" fill="white"/>
<path opacity="0.2" d="M117.96 260.317H114.231V264.044H117.96V260.317Z" fill="white"/>
<path opacity="0.23" d="M123.056 260.317H119.327V264.044H123.056V260.317Z" fill="white"/>
<path opacity="0.17" d="M102.672 265.41H98.9435V269.137H102.672V265.41Z" fill="white"/>
<path opacity="0.08" d="M107.768 265.41H104.039V269.137H107.768V265.41Z" fill="white"/>
<path opacity="0.14" d="M112.864 265.41H109.135V269.137H112.864V265.41Z" fill="white"/>
<path opacity="0.24" d="M123.056 265.41H119.327V269.137H123.056V265.41Z" fill="white"/>
<path opacity="0.28" d="M102.672 270.503H98.9435V274.23H102.672V270.503Z" fill="white"/>
<path opacity="0.3" d="M107.768 270.503H104.039V274.23H107.768V270.503Z" fill="white"/>
<path opacity="0.23" d="M112.864 270.503H109.135V274.23H112.864V270.503Z" fill="white"/>
<path opacity="0.02" d="M117.96 270.503H114.231V274.23H117.96V270.503Z" fill="white"/>
<path opacity="0.04" d="M123.056 270.503H119.327V274.23H123.056V270.503Z" fill="white"/>
<path opacity="0.3" d="M128.152 270.503H124.423V274.23H128.152V270.503Z" fill="white"/>
<path opacity="0.08" d="M107.768 275.472H104.039V279.199H107.768V275.472Z" fill="white"/>
<path opacity="0.4" d="M128.152 275.472H124.423V279.199H128.152V275.472Z" fill="white"/>
<path opacity="0.31" d="M102.672 280.565H98.9435V284.292H102.672V280.565Z" fill="white"/>
<path opacity="0.31" d="M107.768 280.565H104.039V284.292H107.768V280.565Z" fill="white"/>
<path opacity="0.12" d="M112.864 280.565H109.135V284.292H112.864V280.565Z" fill="white"/>
<path opacity="0.19" d="M123.056 280.565H119.327V284.292H123.056V280.565Z" fill="white"/>
<path opacity="0.43" d="M128.152 280.565H124.423V284.292H128.152V280.565Z" fill="white"/>
<path opacity="0.12" d="M102.672 285.659H98.9435V289.385H102.672V285.659Z" fill="white"/>
<path opacity="0.42" d="M117.96 285.659H114.231V289.385H117.96V285.659Z" fill="white"/>
<path opacity="0.31" d="M128.152 285.659H124.423V289.385H128.152V285.659Z" fill="white"/>
<path opacity="0.23" d="M102.672 290.752H98.9435V294.478H102.672V290.752Z" fill="white"/>
<path opacity="0.31" d="M117.96 290.752H114.231V294.478H117.96V290.752Z" fill="white"/>
<path opacity="0.33" d="M128.152 290.752H124.423V294.478H128.152V290.752Z" fill="white"/>
<path opacity="0.49" d="M102.672 295.845H98.9435V299.572H102.672V295.845Z" fill="white"/>
<path opacity="0.06" d="M107.768 295.845H104.039V299.572H107.768V295.845Z" fill="white"/>
<path opacity="0.17" d="M117.96 295.845H114.231V299.572H117.96V295.845Z" fill="white"/>
<path opacity="0.01" d="M123.056 295.845H119.327V299.572H123.056V295.845Z" fill="white"/>
<path opacity="0.48" d="M128.152 295.845H124.423V299.572H128.152V295.845Z" fill="white"/>
<path opacity="0.05" d="M102.672 300.938H98.9435V304.665H102.672V300.938Z" fill="white"/>
<path opacity="0.23" d="M107.768 300.938H104.039V304.665H107.768V300.938Z" fill="white"/>
<path opacity="0.28" d="M112.864 300.938H109.135V304.665H112.864V300.938Z" fill="white"/>
<path opacity="0.02" d="M117.96 300.938H114.231V304.665H117.96V300.938Z" fill="white"/>
<path opacity="0.17" d="M123.056 300.938H119.327V304.665H123.056V300.938Z" fill="white"/>
<path opacity="0.42" d="M128.152 300.938H124.423V304.665H128.152V300.938Z" fill="white"/>
<path opacity="0.13" d="M102.672 306.031H98.9435V309.758H102.672V306.031Z" fill="white"/>
<path opacity="0.11" d="M112.864 306.031H109.135V309.758H112.864V306.031Z" fill="white"/>
<path opacity="0.02" d="M117.96 306.031H114.231V309.758H117.96V306.031Z" fill="white"/>
<path opacity="0.3" d="M128.152 306.031H124.423V309.758H128.152V306.031Z" fill="white"/>
<path opacity="0.08" d="M123.056 234.852H119.327V238.578H123.056V234.852Z" fill="white"/>
<path opacity="0.1" d="M107.768 239.945H104.039V243.671H107.768V239.945Z" fill="white"/>
<path opacity="0.08" d="M123.056 245.038H119.327V248.765H123.056V245.038Z" fill="white"/>
<path opacity="0.1" d="M107.768 250.131H104.039V253.858H107.768V250.131Z" fill="white"/>
<path opacity="0.01" d="M128.152 250.131H124.423V253.858H128.152V250.131Z" fill="white"/>
<path opacity="0.17" d="M102.672 255.224H98.9435V258.951H102.672V255.224Z" fill="white"/>
<path opacity="0.01" d="M107.768 255.224H104.039V258.951H107.768V255.224Z" fill="white"/>
<path opacity="0.15" d="M112.864 255.224H109.135V258.951H112.864V255.224Z" fill="white"/>
<path opacity="0.12" d="M128.152 255.224H124.423V258.951H128.152V255.224Z" fill="white"/>
<path opacity="0.13" d="M117.96 265.41H114.231V269.137H117.96V265.41Z" fill="white"/>
<path opacity="0.07" d="M128.152 265.41H124.423V269.137H128.152V265.41Z" fill="white"/>
<path opacity="0.13" d="M102.672 275.472H98.9435V279.199H102.672V275.472Z" fill="white"/>
<path opacity="0.02" d="M112.864 275.472H109.135V279.199H112.864V275.472Z" fill="white"/>
<path opacity="0.02" d="M117.96 275.472H114.231V279.199H117.96V275.472Z" fill="white"/>
<path opacity="0.14" d="M123.056 275.472H119.327V279.199H123.056V275.472Z" fill="white"/>
<path opacity="0.09" d="M112.864 285.659H109.135V289.385H112.864V285.659Z" fill="white"/>
<path opacity="0.02" d="M123.056 285.659H119.327V289.385H123.056V285.659Z" fill="white"/>
<path opacity="0.19" d="M112.864 290.752H109.135V294.478H112.864V290.752Z" fill="white"/>
<path opacity="0.06" d="M123.056 290.752H119.327V294.478H123.056V290.752Z" fill="white"/>
<path opacity="0.16" d="M112.864 295.845H109.135V299.572H112.864V295.845Z" fill="white"/>
<path opacity="0.19" d="M107.768 306.031H104.039V309.758H107.768V306.031Z" fill="white"/>
<path opacity="0.04" d="M123.056 306.031H119.327V309.758H123.056V306.031Z" fill="white"/>
<g opacity="0.7">
<path opacity="0.7" d="M138.468 232.74H134.615V324.292H138.468V232.74Z" fill="#E6E6E6"/>
<path opacity="0.7" d="M145.055 232.74H141.202V324.292H145.055V232.74Z" fill="#E6E6E6"/>
<path opacity="0.7" d="M151.767 232.74H147.914V324.292H151.767V232.74Z" fill="#E6E6E6"/>
<path opacity="0.7" d="M158.479 232.74H154.626V324.292H158.479V232.74Z" fill="#E6E6E6"/>
<path opacity="0.7" d="M165.191 232.74H161.338V324.292H165.191V232.74Z" fill="#E6E6E6"/>
</g>
<path d="M53.3286 169.262L45.6225 148.89L66.2549 169.262H53.3286Z" fill="#4D4D4D"/>
<path d="M35.3063 169.262L45.6225 148.89L53.3286 169.262H35.3063Z" fill="#333333"/>
<path d="M53.3286 169.262H35.3063V191.001H53.3286V169.262Z" fill="#333333"/>
<path d="M66.2548 169.262H53.3286V191.001H66.2548V169.262Z" fill="#4D4D4D"/>
<path d="M71.5994 267.025H17.0355V329.509H71.5994V267.025Z" fill="#333333"/>
<path d="M64.1419 222.305H24.6173V267.025H64.1419V222.305Z" fill="#333333"/>
<path d="M58.4245 177.585H30.3347V222.305H58.4245V177.585Z" fill="#333333"/>
<path d="M77.6896 177.585H58.3002V222.305H77.6896V177.585Z" fill="#4D4D4D"/>
<path d="M105.158 267.025H71.5994V329.509H105.158V267.025Z" fill="#4D4D4D"/>
<path d="M89.6216 222.305H64.1419V267.025H89.6216V222.305Z" fill="#4D4D4D"/>
<path opacity="0.53" d="M70.9779 180.815H65.1362V186.653H70.9779V180.815Z" fill="white"/>
<path opacity="0.34" d="M70.9779 188.144H65.1362V193.982H70.9779V188.144Z" fill="white"/>
<path opacity="0.9" d="M70.9779 195.349H65.1362V201.187H70.9779V195.349Z" fill="white"/>
<path opacity="0.14" d="M70.9779 202.554H65.1362V208.392H70.9779V202.554Z" fill="white"/>
<path d="M70.9779 209.883H65.1362V215.721H70.9779V209.883Z" fill="white"/>
<path opacity="0.29" d="M75.3282 226.156H69.4865V231.994H75.3282V226.156Z" fill="white"/>
<path opacity="0.81" d="M84.2771 226.156H78.4354V231.994H84.2771V226.156Z" fill="white"/>
<path opacity="0.18" d="M75.3282 233.485H69.4865V239.324H75.3282V233.485Z" fill="white"/>
<path opacity="0.41" d="M84.2771 233.485H78.4354V239.324H84.2771V233.485Z" fill="white"/>
<path opacity="0.03" d="M84.2771 240.938H78.4354V246.777H84.2771V240.938Z" fill="white"/>
<path opacity="0.85" d="M75.3282 248.392H69.4865V254.23H75.3282V248.392Z" fill="white"/>
<path opacity="0.06" d="M84.2771 248.392H78.4354V254.23H84.2771V248.392Z" fill="white"/>
<path opacity="0.94" d="M75.3282 255.721H69.4865V261.559H75.3282V255.721Z" fill="white"/>
<path opacity="0.25" d="M84.2771 255.721H78.4354V261.559H84.2771V255.721Z" fill="white"/>
<path opacity="0.6" d="M83.5313 270.876H77.6896V276.714H83.5313V270.876Z" fill="white"/>
<path opacity="0.83" d="M91.3617 270.876H85.52V276.714H91.3617V270.876Z" fill="white"/>
<path opacity="0.74" d="M99.192 270.876H93.3503V276.714H99.192V270.876Z" fill="white"/>
<path opacity="0.35" d="M91.3617 277.957H85.52V283.795H91.3617V277.957Z" fill="white"/>
<path opacity="0.54" d="M99.192 277.957H93.3503V283.795H99.192V277.957Z" fill="white"/>
<path opacity="0.2" d="M83.5313 285.037H77.6896V290.876H83.5313V285.037Z" fill="white"/>
<path opacity="0.04" d="M91.3617 285.037H85.52V290.876H91.3617V285.037Z" fill="white"/>
<path opacity="0.86" d="M99.192 285.037H93.3503V290.876H99.192V285.037Z" fill="white"/>
<path opacity="0.06" d="M83.5313 292.118H77.6896V297.957H83.5313V292.118Z" fill="white"/>
<path opacity="0.01" d="M91.3617 292.118H85.52V297.957H91.3617V292.118Z" fill="white"/>
<path opacity="0.39" d="M99.192 292.118H93.3503V297.957H99.192V292.118Z" fill="white"/>
<path opacity="0.1" d="M83.5313 299.323H77.6896V305.161H83.5313V299.323Z" fill="white"/>
<path d="M91.3617 299.323H85.52V305.161H91.3617V299.323Z" fill="white"/>
<path opacity="0.62" d="M99.192 299.323H93.3503V305.161H99.192V299.323Z" fill="white"/>
<path opacity="0.48" d="M83.5313 306.652H77.6896V312.491H83.5313V306.652Z" fill="white"/>
<path opacity="0.27" d="M91.3617 306.652H85.52V312.491H91.3617V306.652Z" fill="white"/>
<path opacity="0.42" d="M99.192 306.652H93.3503V312.491H99.192V306.652Z" fill="white"/>
<path opacity="0.27" d="M28.7189 270.876H22.8772V276.714H28.7189V270.876Z" fill="white"/>
<path opacity="0.11" d="M35.3063 226.156H29.4646V231.994H35.3063V226.156Z" fill="white"/>
<path opacity="0.41" d="M39.9051 180.815H34.0634V186.653H39.9051V180.815Z" fill="white"/>
<path opacity="0.38" d="M47.2383 180.815H41.3966V186.653H47.2383V180.815Z" fill="white"/>
<path opacity="0.02" d="M54.6957 180.815H48.8541V186.653H54.6957V180.815Z" fill="white"/>
<path opacity="0.46" d="M39.9051 188.144H34.0634V193.982H39.9051V188.144Z" fill="white"/>
<path opacity="0.31" d="M47.2383 188.144H41.3966V193.982H47.2383V188.144Z" fill="white"/>
<path opacity="0.61" d="M54.6957 188.144H48.8541V193.982H54.6957V188.144Z" fill="white"/>
<path opacity="0.03" d="M39.9051 195.349H34.0634V201.187H39.9051V195.349Z" fill="white"/>
<path opacity="0.03" d="M47.2383 195.349H41.3966V201.187H47.2383V195.349Z" fill="white"/>
<path opacity="0.46" d="M54.6957 195.349H48.8541V201.187H54.6957V195.349Z" fill="white"/>
<path opacity="0.32" d="M39.9051 202.554H34.0634V208.392H39.9051V202.554Z" fill="white"/>
<path opacity="0.14" d="M47.2383 202.554H41.3966V208.392H47.2383V202.554Z" fill="white"/>
<path opacity="0.3" d="M54.6957 202.554H48.8541V208.392H54.6957V202.554Z" fill="white"/>
<path opacity="0.04" d="M39.9051 209.883H34.0634V215.721H39.9051V209.883Z" fill="white"/>
<path opacity="0.64" d="M47.2383 209.883H41.3966V215.721H47.2383V209.883Z" fill="white"/>
<path opacity="0.05" d="M54.6957 209.883H48.8541V215.721H54.6957V209.883Z" fill="white"/>
<path opacity="0.15" d="M42.7638 226.156H36.9221V231.994H42.7638V226.156Z" fill="white"/>
<path opacity="0.15" d="M50.2213 226.156H44.3796V231.994H50.2213V226.156Z" fill="white"/>
<path opacity="0.52" d="M57.5544 226.156H51.7128V231.994H57.5544V226.156Z" fill="white"/>
<path opacity="0.58" d="M35.3063 233.485H29.4646V239.324H35.3063V233.485Z" fill="white"/>
<path opacity="0.62" d="M42.7638 233.485H36.9221V239.324H42.7638V233.485Z" fill="white"/>
<path opacity="0.04" d="M50.2213 233.485H44.3796V239.324H50.2213V233.485Z" fill="white"/>
<path opacity="0.06" d="M57.5544 233.485H51.7128V239.324H57.5544V233.485Z" fill="white"/>
<path opacity="0.3" d="M35.3063 240.938H29.4646V246.777H35.3063V240.938Z" fill="white"/>
<path opacity="0.01" d="M42.7638 240.938H36.9221V246.777H42.7638V240.938Z" fill="white"/>
<path opacity="0.37" d="M50.2213 240.938H44.3796V246.777H50.2213V240.938Z" fill="white"/>
<path opacity="0.62" d="M57.5544 240.938H51.7128V246.777H57.5544V240.938Z" fill="white"/>
<path opacity="0.54" d="M35.3063 248.392H29.4646V254.23H35.3063V248.392Z" fill="white"/>
<path opacity="0.21" d="M42.7638 248.392H36.9221V254.23H42.7638V248.392Z" fill="white"/>
<path opacity="0.41" d="M50.2213 248.392H44.3796V254.23H50.2213V248.392Z" fill="white"/>
<path opacity="0.1" d="M57.5544 248.392H51.7128V254.23H57.5544V248.392Z" fill="white"/>
<path opacity="0.17" d="M35.3063 255.721H29.4646V261.559H35.3063V255.721Z" fill="white"/>
<path opacity="0.17" d="M42.7638 255.721H36.9221V261.559H42.7638V255.721Z" fill="white"/>
<path opacity="0.13" d="M50.2213 255.721H44.3796V261.559H50.2213V255.721Z" fill="white"/>
<path opacity="0.5" d="M57.5544 255.721H51.7128V261.559H57.5544V255.721Z" fill="white"/>
<path opacity="0.06" d="M36.1764 270.876H30.3347V276.714H36.1764V270.876Z" fill="white"/>
<path opacity="0.27" d="M43.5095 270.876H37.6678V276.714H43.5095V270.876Z" fill="white"/>
<path opacity="0.51" d="M50.9671 270.876H45.1254V276.714H50.9671V270.876Z" fill="white"/>
<path opacity="0.42" d="M58.4245 270.876H52.5828V276.714H58.4245V270.876Z" fill="white"/>
<path opacity="0.64" d="M65.7576 270.876H59.916V276.714H65.7576V270.876Z" fill="white"/>
<path opacity="0.29" d="M28.7189 277.957H22.8772V283.795H28.7189V277.957Z" fill="white"/>
<path opacity="0.6" d="M36.1764 277.957H30.3347V283.795H36.1764V277.957Z" fill="white"/>
<path opacity="0.2" d="M43.5095 277.957H37.6678V283.795H43.5095V277.957Z" fill="white"/>
<path opacity="0.24" d="M50.9671 277.957H45.1254V283.795H50.9671V277.957Z" fill="white"/>
<path opacity="0.62" d="M58.4245 277.957H52.5828V283.795H58.4245V277.957Z" fill="white"/>
<path opacity="0.62" d="M65.7576 277.957H59.916V283.795H65.7576V277.957Z" fill="white"/>
<path opacity="0.25" d="M28.7189 285.037H22.8772V290.876H28.7189V285.037Z" fill="white"/>
<path opacity="0.36" d="M36.1764 285.037H30.3347V290.876H36.1764V285.037Z" fill="white"/>
<path opacity="0.16" d="M43.5095 285.037H37.6678V290.876H43.5095V285.037Z" fill="white"/>
<path opacity="0.1" d="M50.9671 285.037H45.1254V290.876H50.9671V285.037Z" fill="white"/>
<path opacity="0.04" d="M58.4245 285.037H52.5828V290.876H58.4245V285.037Z" fill="white"/>
<path opacity="0.44" d="M65.7576 285.037H59.916V290.876H65.7576V285.037Z" fill="white"/>
<path opacity="0.68" d="M28.7189 292.118H22.8772V297.957H28.7189V292.118Z" fill="white"/>
<path opacity="0.01" d="M36.1764 292.118H30.3347V297.957H36.1764V292.118Z" fill="white"/>
<path opacity="0.29" d="M43.5095 292.118H37.6678V297.957H43.5095V292.118Z" fill="white"/>
<path opacity="0.66" d="M50.9671 292.118H45.1254V297.957H50.9671V292.118Z" fill="white"/>
<path opacity="0.12" d="M58.4245 292.118H52.5828V297.957H58.4245V292.118Z" fill="white"/>
<path opacity="0.34" d="M65.7576 292.118H59.916V297.957H65.7576V292.118Z" fill="white"/>
<path opacity="0.36" d="M28.7189 299.323H22.8772V305.161H28.7189V299.323Z" fill="white"/>
<path opacity="0.5" d="M36.1764 299.323H30.3347V305.161H36.1764V299.323Z" fill="white"/>
<path opacity="0.07" d="M43.5095 299.323H37.6678V305.161H43.5095V299.323Z" fill="white"/>
<path opacity="0.64" d="M50.9671 299.323H45.1254V305.161H50.9671V299.323Z" fill="white"/>
<path opacity="0.4" d="M58.4245 299.323H52.5828V305.161H58.4245V299.323Z" fill="white"/>
<path opacity="0.27" d="M65.7576 299.323H59.916V305.161H65.7576V299.323Z" fill="white"/>
<path opacity="0.09" d="M28.7189 306.652H22.8772V312.491H28.7189V306.652Z" fill="white"/>
<path opacity="0.47" d="M36.1764 306.652H30.3347V312.491H36.1764V306.652Z" fill="white"/>
<path opacity="0.57" d="M43.5095 306.652H37.6678V312.491H43.5095V306.652Z" fill="white"/>
<path opacity="0.12" d="M50.9671 306.652H45.1254V312.491H50.9671V306.652Z" fill="white"/>
<path opacity="0.23" d="M58.4245 306.652H52.5828V312.491H58.4245V306.652Z" fill="white"/>
<path opacity="0.36" d="M65.7576 306.652H59.916V312.491H65.7576V306.652Z" fill="white"/>
<path d="M190.422 324.292H113.113L190.422 256.963V324.292Z" fill="#333333"/>
<path d="M24.6173 325.658H-82.5217L24.6173 232.491V325.658Z" fill="#333333"/>
<path d="M181.846 308.888H159.225V315.845H181.846V308.888Z" fill="#4D4D4D"/>
<path d="M179.236 311H161.711L167.801 300.814H173.145L179.236 311Z" fill="#4D4D4D"/>
<path d="M85.1472 318.702C85.1472 323.546 81.2941 327.521 76.5711 327.521C71.848 327.521 67.9949 323.546 67.9949 318.702C67.9949 313.857 71.848 309.882 76.5711 309.882C81.2941 309.758 85.1472 313.733 85.1472 318.702Z" fill="#333333"/>
<path d="M315.956 314.851C315.956 318.081 313.346 320.814 310.238 320.814C307.131 320.814 304.521 318.205 304.521 314.851C304.521 311.621 307.131 308.888 310.238 308.888C313.346 308.888 315.956 311.621 315.956 314.851Z" fill="#333333"/>
<path d="M115.723 315.223C115.723 318.577 113.113 321.31 109.757 321.31C106.525 321.31 103.791 318.577 103.791 315.223C103.791 311.869 106.401 309.136 109.757 309.136C113.113 309.136 115.723 311.869 115.723 315.223Z" fill="#333333"/>
</svg>
